<svg width="48" height="48" viewBox="0 0 48 48" fill="none" xmlns="http://www.w3.org/2000/svg">
<circle cx="24" cy="24" r="24" fill="#F7F9FC"/>
<path fill-rule="evenodd" clip-rule="evenodd" d="M22 32H24V25.8C24 25.247 24.447 24.8 25 24.8H27.24L27.685 23.2H25C24.447 23.2 24 22.753 24 22.2V19.5C24 18.452 24.897 17.6 26 17.6H28V16H26C23.794 16 22 17.57 22 19.5V22.2C22 22.753 21.553 23.2 21 23.2H19V24.8H21C21.553 24.8 22 25.247 22 25.8V32ZM25 34H21C20.447 34 20 33.553 20 33V26.8H18C17.447 26.8 17 26.353 17 25.8V22.2C17 21.647 17.447 21.2 18 21.2H20V19.5C20 16.468 22.691 14 26 14H29C29.553 14 30 14.447 30 15V18.6C30 19.152 29.553 19.6 29 19.6H26V21.2H29C29.312 21.2 29.607 21.347 29.796 21.595C29.985 21.844 30.047 22.167 29.964 22.468L28.964 26.067C28.844 26.5 28.449 26.8 28 26.8H26V33C26 33.553 25.553 34 25 34Z" fill="#8F9BB3"/>
</svg>
